<svg width="183" height="19" fill="none" xmlns="http://www.w3.org/2000/svg"><path d="M35.996.942v17.566h-2.905V11.03h-9.395v7.478h-2.9V.942h2.9v7.452h9.395V.942h2.905zm18.479 0v2.632h-5.879v14.934h-2.904V3.574h-5.905V.942h14.688zm15.859 0v2.611h-7.068c-1.342 0-2.432 1.074-2.432 2.397v2.397H70v2.61h-9.165v2.547c0 1.323 1.09 2.397 2.432 2.397h7.402v2.61h-7.92c-2.66 0-4.818-2.126-4.818-4.75V5.697c0-2.623 2.157-4.75 4.819-4.75l7.585-.005zm31.49-.329c1.781 0 3.873.402 5.401 1.155v2.787c-1.246-.852-3.238-1.306-4.919-1.306-3.412 0-6.95 1.982-6.977 6.626 0 4.318 3.617 6.326 7.025 6.326 1.832 0 3.821-.475 4.993-1.357v2.838c-1.502.727-3.621 1.155-5.501 1.155-4.606 0-9.495-2.962-9.469-8.958 0-6.253 4.763-9.266 9.447-9.266zm22.916.329v2.632h-5.883v14.934h-2.9V3.574h-5.909V.942h14.692zm52.326-.329c1.78 0 3.872.402 5.401 1.155v2.787c-1.246-.852-3.239-1.306-4.919-1.306-3.413 0-6.951 1.982-6.977 6.626 0 4.318 3.616 6.326 7.024 6.326 1.833 0 3.821-.475 4.993-1.357v2.838c-1.502.727-3.621 1.155-5.501 1.155-4.606 0-9.495-2.962-9.469-8.958 0-6.253 4.763-9.266 9.448-9.266zm-26.923.201v11.274c0 1.934-.282 3.783-2.041 3.783-.534 0-1.072-.051-1.428-.175v2.636c.638.201 1.22.3 1.758.3 3.165 0 4.615-1.76 4.615-6.545V3.45h7.503v14.934h2.9V.814h-13.307zM83.068.942h-7.437v17.57h2.9v-4.674h4.533c3.612 0 6.538-2.61 6.538-6.446.005-3.843-2.922-6.45-6.534-6.45zm-.473 10.28h-4.06V3.55h4.06c2.635 0 4.06 1.814 4.06 3.839 0 2.024-1.42 3.835-4.06 3.835zM12.296.942v14.93H7.264c-2.592 0-4.364-1.413-4.364-3.969V.943H0V12.01c0 4.138 3.07 6.497 7.264 6.497v.004h7.932V.942h-2.9zm128.196 0v14.93h-5.032c-2.592 0-4.363-1.413-4.363-3.969V.943h-2.901V12.01c0 4.138 3.07 6.497 7.264 6.497v.004h7.932V.942h-2.9z" fill="#262A31"/></svg>